.
 
http://www.scenetime.com    -  Hottest private tracker on the net. !!!

Sign up will close shortly !!  Join now 

        Seed back for speed


...................................NFO:.................................................  
[pre]ooooo ooo        ooooo       .o.         .oooooo.     o8o  ooooo      ooo oooooooooooo 
      888' `88.       .888'      .888.       d8P'  `Y8b    `"'  `888b.     `8' `888'     `8 
      888   888b     d'888      .8"888.     888           oooo   8 `88b.    8   888         
      888   8 Y88. .P  888     .8' `888.    888           `888   8   `88b.  8   888oooo8    
      888   8  `888'   888    .88ooo8888.   888     ooooo  888   8     `88b.8   888    "    
      888   8    Y     888   .8'     `888.  `88.    .88'   888   8       `888   888       o 
     o888o o8o        o888o o88o     o8888o  `Y8bood8P'   o888o o8o        `8  o888ooooood8  
                                                



                  Another Fine Release Brought to you from - IMAGiNE                   
                                                 

******************************************************************************************                              
                     Fast Five 2011 720p BDRiP XViD AC3 - IMAGiNE                                                                
******************************************************************************************

Ripper ...........: IMAGiNE              IMDB Rating.......: 7.6/10                             
Video Codec.......: XViD                 Release Date......: 18/08/11
Audio Codec.......: AC3                  Theatre Date......: 29/04/11
Audio Bitrate.....: 448                  Runtime...........: 2h 10mn
Subtitles.........: ENGLISH              Language..........: ENGLISH
Resolution........: 1280 x 544           IMDb URL..........: http://www.imdb.com/title/tt1596343/


[color=yellow]DETAILS:[/color]

Video
ID                               : 0
Format                           : MPEG-4 Visual
Format profile                   : Advanced Simple@L5
Format settings, BVOP            : 2
Format settings, QPel            : No
Format settings, GMC             : No warppoints
Format settings, Matrix          : Default (MPEG)
Muxing mode                      : Packed bitstream
Codec ID                         : XVID
Codec ID/Hint                    : XviD
Duration                         : 2h 10mn
Bit rate                         : 3 343 Kbps
Width                            : 1 280 pixels
Height                           : 544 pixels
Display aspect ratio             : 2.35:1
Frame rate                       : 23.976 fps
Color space                      : YUV
Chroma subsampling               : 4:2:0
Bit depth                        : 8 bits
Scan type                        : Progressive
Compression mode                 : Lossy
Bits/(Pixel*Frame)               : 0.200
Stream size                      : 3.04 GiB (88%)
Writing library                  : XviD 64

Audio
ID                               : 1
Format                           : AC-3
Format/Info                      : Audio Coding 3
Mode extension                   : CM (complete main)
Codec ID                         : 2000
Duration                         : 2h 10mn
Bit rate mode                    : Constant
Bit rate                         : 448 Kbps
Channel(s)                       : 6 channels
Channel positions                : Front: L C R, Side: L R, LFE
Sampling rate                    : 48.0 KHz
Bit depth                        : 16 bits
Compression mode                 : Lossy
Stream size                      : 418 MiB (12%)
Alignment                        : Aligned on interleaves
Interleave, duration             : 42 ms (1.00 video frame)




[color=yellow]SOURCES:[/color]

VIDEO: ....... FAST_FIVE_G52
AUDIO: ....... FAST_FIVE_G52 Thanks Mate :D

[color=yellow]NOTES:[/color]
IMAGiNE bringing you another release..........
Fast Five 720p BDRiP.......
Ok so first we made a script to crop 
resize and sharpen.........
Then we took the subtitles from source
and hardcoded them to our encode :P
Last we converted the DTS to AC3 and muxed
Enjoy Folks!




[color=yellow]SCREENS:[/color]


[color=yellow]GREETS:[/color]

FLAWL3SS,KINOPARK,Rx,ELEKTRI4KA,ADDiCTED,Autotron,CiNEDUB,
And to all the other p2p grps past and present 

[COLOR=RED]Looking for these,syncers,cammers,audio,silver supplier.....Have anything to offer????......
Contact us imaginegroup@hushmail.com[/COLOR][/pre]